<svg viewBox="0 0 1060 190" xmlns="http://www.w3.org/2000/svg" font-family="'Segoe UI','Microsoft YaHei',sans-serif">
  <defs>
    <marker id="arr2" viewBox="0 0 10 10" refX="9" refY="5" markerWidth="7" markerHeight="7" orient="auto-start-reverse">
      <path d="M0,0 L10,5 L0,10 z" fill="#94a3b8"/>
    </marker>
  </defs>
  <rect x="0" y="0" width="1060" height="190" fill="#ffffff"/>
  <text x="20" y="30" font-size="16" font-weight="700" fill="#1e293b">文档入库流水线</text>
  <text x="20" y="48" font-size="12" fill="#64748b">POST /api/documents/:id/process</text>

  <!-- arrows -->
  <g stroke="#94a3b8" stroke-width="1.6" marker-end="url(#arr2)" fill="none">
    <line x1="145" y1="100" x2="168" y2="100"/>
    <line x1="293" y1="100" x2="316" y2="100"/>
    <line x1="441" y1="100" x2="464" y2="100"/>
    <line x1="589" y1="100" x2="612" y2="100"/>
    <line x1="737" y1="100" x2="760" y2="100"/>
    <line x1="885" y1="100" x2="908" y2="100"/>
  </g>

  <g text-anchor="middle" font-size="12.5">
    <rect x="20"  y="72" width="125" height="56" rx="9" fill="#f1f5f9" stroke="#64748b" stroke-width="1.4"/>
    <text x="82"  y="105" fill="#334155" font-weight="600">上传 PDF/Word</text>

    <rect x="168" y="72" width="125" height="56" rx="9" fill="#eef2ff" stroke="#6366f1" stroke-width="1.4"/>
    <text x="230" y="98" fill="#3730a3" font-weight="600">文本提取</text>
    <text x="230" y="116" fill="#6366f1" font-size="10">pdfjs/pdfplumber/OCR</text>

    <rect x="316" y="72" width="125" height="56" rx="9" fill="#eef2ff" stroke="#6366f1" stroke-width="1.4"/>
    <text x="378" y="98" fill="#3730a3" font-weight="600">IR Block</text>
    <text x="378" y="116" fill="#6366f1" font-size="10">标题/段落/表格</text>

    <rect x="464" y="72" width="125" height="56" rx="9" fill="#eef2ff" stroke="#6366f1" stroke-width="1.4"/>
    <text x="526" y="105" fill="#3730a3" font-weight="600">DocProfile 画像</text>

    <rect x="612" y="72" width="125" height="56" rx="9" fill="#eef2ff" stroke="#6366f1" stroke-width="1.4"/>
    <text x="674" y="98" fill="#3730a3" font-weight="600">14 类知识对象</text>
    <text x="674" y="116" fill="#6366f1" font-size="10">条款/指标/定义…</text>

    <rect x="760" y="72" width="125" height="56" rx="9" fill="#eef2ff" stroke="#6366f1" stroke-width="1.4"/>
    <text x="822" y="98" fill="#3730a3" font-weight="600">切片 Chunk</text>
    <text x="822" y="116" fill="#6366f1" font-size="10">+ RagTable</text>

    <rect x="908" y="72" width="125" height="56" rx="9" fill="#ecfdf5" stroke="#10b981" stroke-width="1.6"/>
    <text x="970" y="98" fill="#065f46" font-weight="700">embedding</text>
    <text x="970" y="116" fill="#059669" font-size="10">入库</text>
  </g>
</svg>
